<svg xmlns="http://www.w3.org/2000/svg" width="600" height="450" viewBox="0 0 1200.0 900.0" font-family="system-ui, sans-serif">
<rect width="1200.0" height="900.0" fill="#fafafa" rx="8"/>
<line x1="396.5" y1="592.6" x2="501.0" y2="277.9" stroke="#aaa" stroke-width="2.5" stroke-linecap="round"/>
<line x1="854.0" y1="472.2" x2="1080.0" y2="372.6" stroke="#aaa" stroke-width="1.2" stroke-linecap="round"/>
<line x1="1080.0" y1="372.6" x2="854.0" y2="472.2" stroke="#aaa" stroke-width="1.2" stroke-linecap="round"/>
<line x1="854.0" y1="472.2" x2="722.5" y2="249.2" stroke="#aaa" stroke-width="1.0" stroke-linecap="round"/>
<line x1="722.5" y1="249.2" x2="501.0" y2="277.9" stroke="#aaa" stroke-width="3.2" stroke-linecap="round"/>
<line x1="854.0" y1="472.2" x2="501.0" y2="277.9" stroke="#aaa" stroke-width="1.1" stroke-linecap="round"/>
<line x1="854.0" y1="472.2" x2="497.1" y2="416.4" stroke="#aaa" stroke-width="1.0" stroke-linecap="round"/>
<line x1="854.0" y1="472.2" x2="806.2" y2="725.2" stroke="#aaa" stroke-width="1.0" stroke-linecap="round"/>
<line x1="806.2" y1="725.2" x2="854.0" y2="472.2" stroke="#aaa" stroke-width="1.0" stroke-linecap="round"/>
<line x1="722.5" y1="249.2" x2="497.1" y2="416.4" stroke="#aaa" stroke-width="3.3" stroke-linecap="round"/>
<line x1="854.0" y1="472.2" x2="396.5" y2="592.6" stroke="#aaa" stroke-width="1.0" stroke-linecap="round"/>
<line x1="396.5" y1="592.6" x2="697.6" y2="600.0" stroke="#aaa" stroke-width="1.1" stroke-linecap="round"/>
<line x1="697.6" y1="600.0" x2="501.0" y2="277.9" stroke="#aaa" stroke-width="3.3" stroke-linecap="round"/>
<line x1="697.6" y1="600.0" x2="497.1" y2="416.4" stroke="#aaa" stroke-width="2.0" stroke-linecap="round"/>
<line x1="501.0" y1="277.9" x2="497.1" y2="416.4" stroke="#aaa" stroke-width="4.0" stroke-linecap="round"/>
<line x1="501.0" y1="277.9" x2="223.2" y2="341.0" stroke="#aaa" stroke-width="1.4" stroke-linecap="round"/>
<line x1="697.6" y1="600.0" x2="321.0" y2="680.6" stroke="#aaa" stroke-width="1.0" stroke-linecap="round"/>
<line x1="697.6" y1="600.0" x2="940.6" y2="680.4" stroke="#aaa" stroke-width="1.0" stroke-linecap="round"/>
<line x1="697.6" y1="600.0" x2="223.2" y2="341.0" stroke="#aaa" stroke-width="1.0" stroke-linecap="round"/>
<line x1="697.6" y1="600.0" x2="870.5" y2="734.7" stroke="#aaa" stroke-width="1.0" stroke-linecap="round"/>
<line x1="697.6" y1="600.0" x2="1039.0" y2="569.6" stroke="#aaa" stroke-width="1.0" stroke-linecap="round"/>
<line x1="501.0" y1="277.9" x2="229.3" y2="569.7" stroke="#aaa" stroke-width="1.0" stroke-linecap="round"/>
<line x1="697.6" y1="600.0" x2="202.6" y2="653.9" stroke="#aaa" stroke-width="1.0" stroke-linecap="round"/>
<line x1="697.6" y1="600.0" x2="660.5" y2="355.7" stroke="#aaa" stroke-width="1.1" stroke-linecap="round"/>
<line x1="501.0" y1="277.9" x2="703.9" y2="496.4" stroke="#aaa" stroke-width="1.0" stroke-linecap="round"/>
<line x1="501.0" y1="277.9" x2="660.5" y2="355.7" stroke="#aaa" stroke-width="1.2" stroke-linecap="round"/>
<line x1="697.6" y1="600.0" x2="229.3" y2="569.7" stroke="#aaa" stroke-width="1.0" stroke-linecap="round"/>
<line x1="396.5" y1="592.6" x2="508.3" y2="661.1" stroke="#aaa" stroke-width="1.0" stroke-linecap="round"/>
<line x1="508.3" y1="661.1" x2="501.0" y2="277.9" stroke="#aaa" stroke-width="1.0" stroke-linecap="round"/>
<line x1="501.0" y1="277.9" x2="562.8" y2="120.0" stroke="#aaa" stroke-width="1.0" stroke-linecap="round"/>
<line x1="501.0" y1="277.9" x2="233.6" y2="210.5" stroke="#aaa" stroke-width="1.0" stroke-linecap="round"/>
<line x1="501.0" y1="277.9" x2="739.7" y2="139.0" stroke="#aaa" stroke-width="1.0" stroke-linecap="round"/>
<line x1="501.0" y1="277.9" x2="460.6" y2="121.7" stroke="#aaa" stroke-width="1.0" stroke-linecap="round"/>
<line x1="508.3" y1="661.1" x2="703.9" y2="496.4" stroke="#aaa" stroke-width="1.0" stroke-linecap="round"/>
<line x1="501.0" y1="277.9" x2="295.9" y2="170.5" stroke="#aaa" stroke-width="1.0" stroke-linecap="round"/>
<line x1="396.5" y1="592.6" x2="497.1" y2="416.4" stroke="#aaa" stroke-width="1.0" stroke-linecap="round"/>
<line x1="497.1" y1="416.4" x2="501.0" y2="277.9" stroke="#aaa" stroke-width="1.0" stroke-linecap="round"/>
<line x1="396.5" y1="592.6" x2="213.3" y2="488.2" stroke="#aaa" stroke-width="1.0" stroke-linecap="round"/>
<line x1="213.3" y1="488.2" x2="501.0" y2="277.9" stroke="#aaa" stroke-width="1.0" stroke-linecap="round"/>
<line x1="213.3" y1="488.2" x2="497.1" y2="416.4" stroke="#aaa" stroke-width="1.0" stroke-linecap="round"/>
<line x1="396.5" y1="592.6" x2="440.7" y2="511.1" stroke="#aaa" stroke-width="1.0" stroke-linecap="round"/>
<line x1="440.7" y1="511.1" x2="501.0" y2="277.9" stroke="#aaa" stroke-width="1.0" stroke-linecap="round"/>
<line x1="440.7" y1="511.1" x2="497.1" y2="416.4" stroke="#aaa" stroke-width="1.0" stroke-linecap="round"/>
<line x1="440.7" y1="511.1" x2="660.5" y2="355.7" stroke="#aaa" stroke-width="1.0" stroke-linecap="round"/>
<line x1="697.6" y1="600.0" x2="703.9" y2="496.4" stroke="#aaa" stroke-width="1.0" stroke-linecap="round"/>
<line x1="854.0" y1="472.2" x2="697.6" y2="600.0" stroke="#aaa" stroke-width="1.0" stroke-linecap="round"/>
<line x1="854.0" y1="472.2" x2="508.3" y2="661.1" stroke="#aaa" stroke-width="1.0" stroke-linecap="round"/>
<line x1="697.6" y1="600.0" x2="619.1" y2="464.5" stroke="#aaa" stroke-width="2.4" stroke-linecap="round"/>
<line x1="697.6" y1="600.0" x2="826.1" y2="297.6" stroke="#aaa" stroke-width="1.0" stroke-linecap="round"/>
<line x1="440.7" y1="511.1" x2="619.1" y2="464.5" stroke="#aaa" stroke-width="1.0" stroke-linecap="round"/>
<line x1="508.3" y1="661.1" x2="619.1" y2="464.5" stroke="#aaa" stroke-width="1.0" stroke-linecap="round"/>
<line x1="306.0" y1="414.6" x2="619.1" y2="464.5" stroke="#aaa" stroke-width="1.0" stroke-linecap="round"/>
<line x1="306.0" y1="414.6" x2="703.9" y2="496.4" stroke="#aaa" stroke-width="1.0" stroke-linecap="round"/>
<line x1="306.0" y1="414.6" x2="501.0" y2="277.9" stroke="#aaa" stroke-width="1.3" stroke-linecap="round"/>
<line x1="213.3" y1="488.2" x2="619.1" y2="464.5" stroke="#aaa" stroke-width="1.0" stroke-linecap="round"/>
<line x1="501.0" y1="277.9" x2="619.1" y2="464.5" stroke="#aaa" stroke-width="3.3" stroke-linecap="round"/>
<line x1="501.0" y1="277.9" x2="370.5" y2="139.8" stroke="#aaa" stroke-width="1.0" stroke-linecap="round"/>
<line x1="989.1" y1="449.9" x2="619.1" y2="464.5" stroke="#aaa" stroke-width="1.0" stroke-linecap="round"/>
<line x1="989.1" y1="449.9" x2="1039.0" y2="569.6" stroke="#aaa" stroke-width="1.0" stroke-linecap="round"/>
<line x1="989.1" y1="449.9" x2="501.0" y2="277.9" stroke="#aaa" stroke-width="1.0" stroke-linecap="round"/>
<line x1="864.5" y1="349.9" x2="619.1" y2="464.5" stroke="#aaa" stroke-width="1.0" stroke-linecap="round"/>
<line x1="864.5" y1="349.9" x2="501.0" y2="277.9" stroke="#aaa" stroke-width="1.0" stroke-linecap="round"/>
<line x1="501.0" y1="277.9" x2="826.1" y2="297.6" stroke="#aaa" stroke-width="1.0" stroke-linecap="round"/>
<line x1="864.5" y1="349.9" x2="497.1" y2="416.4" stroke="#aaa" stroke-width="1.0" stroke-linecap="round"/>
<line x1="864.5" y1="349.9" x2="660.5" y2="355.7" stroke="#aaa" stroke-width="1.0" stroke-linecap="round"/>
<line x1="440.7" y1="511.1" x2="703.9" y2="496.4" stroke="#aaa" stroke-width="1.0" stroke-linecap="round"/>
<line x1="306.0" y1="414.6" x2="497.1" y2="416.4" stroke="#aaa" stroke-width="1.0" stroke-linecap="round"/>
<line x1="306.0" y1="414.6" x2="660.5" y2="355.7" stroke="#aaa" stroke-width="1.0" stroke-linecap="round"/>
<line x1="306.0" y1="414.6" x2="321.0" y2="680.6" stroke="#aaa" stroke-width="1.0" stroke-linecap="round"/>
<line x1="306.0" y1="414.6" x2="229.3" y2="569.7" stroke="#aaa" stroke-width="1.0" stroke-linecap="round"/>
<line x1="440.7" y1="511.1" x2="229.3" y2="569.7" stroke="#aaa" stroke-width="1.0" stroke-linecap="round"/>
<line x1="508.3" y1="661.1" x2="497.1" y2="416.4" stroke="#aaa" stroke-width="1.0" stroke-linecap="round"/>
<line x1="1039.0" y1="569.6" x2="697.6" y2="600.0" stroke="#aaa" stroke-width="1.0" stroke-linecap="round"/>
<line x1="826.1" y1="297.6" x2="697.6" y2="600.0" stroke="#aaa" stroke-width="1.0" stroke-linecap="round"/>
<line x1="940.6" y1="680.4" x2="697.6" y2="600.0" stroke="#aaa" stroke-width="1.0" stroke-linecap="round"/>
<line x1="229.3" y1="569.7" x2="697.6" y2="600.0" stroke="#aaa" stroke-width="1.0" stroke-linecap="round"/>
<line x1="870.5" y1="734.7" x2="697.6" y2="600.0" stroke="#aaa" stroke-width="1.0" stroke-linecap="round"/>
<line x1="202.6" y1="653.9" x2="697.6" y2="600.0" stroke="#aaa" stroke-width="1.0" stroke-linecap="round"/>
<line x1="703.9" y1="496.4" x2="697.6" y2="600.0" stroke="#aaa" stroke-width="1.0" stroke-linecap="round"/>
<line x1="321.0" y1="680.6" x2="697.6" y2="600.0" stroke="#aaa" stroke-width="1.0" stroke-linecap="round"/>
<line x1="703.9" y1="496.4" x2="306.0" y2="414.6" stroke="#aaa" stroke-width="1.0" stroke-linecap="round"/>
<line x1="562.8" y1="120.0" x2="501.0" y2="277.9" stroke="#aaa" stroke-width="1.0" stroke-linecap="round"/>
<line x1="703.9" y1="496.4" x2="501.0" y2="277.9" stroke="#aaa" stroke-width="1.0" stroke-linecap="round"/>
<line x1="229.3" y1="569.7" x2="501.0" y2="277.9" stroke="#aaa" stroke-width="1.0" stroke-linecap="round"/>
<line x1="233.6" y1="210.5" x2="501.0" y2="277.9" stroke="#aaa" stroke-width="1.0" stroke-linecap="round"/>
<line x1="739.7" y1="139.0" x2="501.0" y2="277.9" stroke="#aaa" stroke-width="1.0" stroke-linecap="round"/>
<line x1="460.6" y1="121.7" x2="501.0" y2="277.9" stroke="#aaa" stroke-width="1.0" stroke-linecap="round"/>
<line x1="370.5" y1="139.8" x2="501.0" y2="277.9" stroke="#aaa" stroke-width="1.0" stroke-linecap="round"/>
<line x1="1039.0" y1="569.6" x2="989.1" y2="449.9" stroke="#aaa" stroke-width="1.0" stroke-linecap="round"/>
<line x1="295.9" y1="170.5" x2="501.0" y2="277.9" stroke="#aaa" stroke-width="1.0" stroke-linecap="round"/>
<line x1="826.1" y1="297.6" x2="501.0" y2="277.9" stroke="#aaa" stroke-width="1.0" stroke-linecap="round"/>
<line x1="703.9" y1="496.4" x2="440.7" y2="511.1" stroke="#aaa" stroke-width="1.0" stroke-linecap="round"/>
<line x1="703.9" y1="496.4" x2="508.3" y2="661.1" stroke="#aaa" stroke-width="1.0" stroke-linecap="round"/>
<line x1="623.2" y1="718.2" x2="501.0" y2="277.9" stroke="#aaa" stroke-width="1.0" stroke-linecap="round"/>
<line x1="508.3" y1="661.1" x2="229.3" y2="569.7" stroke="#aaa" stroke-width="1.0" stroke-linecap="round"/>
<line x1="229.3" y1="569.7" x2="508.3" y2="661.1" stroke="#aaa" stroke-width="1.0" stroke-linecap="round"/>
<line x1="321.0" y1="680.6" x2="306.0" y2="414.6" stroke="#aaa" stroke-width="1.0" stroke-linecap="round"/>
<line x1="229.3" y1="569.7" x2="306.0" y2="414.6" stroke="#aaa" stroke-width="1.0" stroke-linecap="round"/>
<line x1="213.3" y1="488.2" x2="229.3" y2="569.7" stroke="#aaa" stroke-width="1.0" stroke-linecap="round"/>
<line x1="229.3" y1="569.7" x2="213.3" y2="488.2" stroke="#aaa" stroke-width="1.0" stroke-linecap="round"/>
<line x1="306.0" y1="414.6" x2="223.2" y2="341.0" stroke="#aaa" stroke-width="1.0" stroke-linecap="round"/>
<line x1="229.3" y1="569.7" x2="440.7" y2="511.1" stroke="#aaa" stroke-width="1.0" stroke-linecap="round"/>
<line x1="213.3" y1="488.2" x2="202.6" y2="653.9" stroke="#aaa" stroke-width="1.0" stroke-linecap="round"/>
<line x1="202.6" y1="653.9" x2="213.3" y2="488.2" stroke="#aaa" stroke-width="1.0" stroke-linecap="round"/>
<line x1="213.3" y1="488.2" x2="660.5" y2="355.7" stroke="#aaa" stroke-width="1.0" stroke-linecap="round"/>
<line x1="697.6" y1="600.0" x2="989.1" y2="449.9" stroke="#aaa" stroke-width="1.0" stroke-linecap="round"/>
<line x1="697.6" y1="600.0" x2="623.2" y2="718.2" stroke="#aaa" stroke-width="1.0" stroke-linecap="round"/>
<line x1="697.6" y1="600.0" x2="306.0" y2="414.6" stroke="#aaa" stroke-width="1.0" stroke-linecap="round"/>
<line x1="697.6" y1="600.0" x2="508.3" y2="661.1" stroke="#aaa" stroke-width="1.0" stroke-linecap="round"/>
<line x1="697.6" y1="600.0" x2="213.3" y2="488.2" stroke="#aaa" stroke-width="1.0" stroke-linecap="round"/>
<line x1="697.6" y1="600.0" x2="440.7" y2="511.1" stroke="#aaa" stroke-width="1.0" stroke-linecap="round"/>
<line x1="440.7" y1="511.1" x2="697.6" y2="600.0" stroke="#aaa" stroke-width="1.0" stroke-linecap="round"/>
<line x1="306.0" y1="414.6" x2="697.6" y2="600.0" stroke="#aaa" stroke-width="1.0" stroke-linecap="round"/>
<line x1="213.3" y1="488.2" x2="697.6" y2="600.0" stroke="#aaa" stroke-width="1.0" stroke-linecap="round"/>
<line x1="697.6" y1="600.0" x2="864.5" y2="349.9" stroke="#aaa" stroke-width="1.0" stroke-linecap="round"/>
<line x1="501.0" y1="277.9" x2="697.6" y2="600.0" stroke="#aaa" stroke-width="2.5" stroke-linecap="round"/>
<line x1="501.0" y1="277.9" x2="306.0" y2="414.6" stroke="#aaa" stroke-width="1.2" stroke-linecap="round"/>
<line x1="501.0" y1="277.9" x2="440.7" y2="511.1" stroke="#aaa" stroke-width="1.0" stroke-linecap="round"/>
<line x1="501.0" y1="277.9" x2="213.3" y2="488.2" stroke="#aaa" stroke-width="1.0" stroke-linecap="round"/>
<line x1="501.0" y1="277.9" x2="623.2" y2="718.2" stroke="#aaa" stroke-width="1.0" stroke-linecap="round"/>
<line x1="501.0" y1="277.9" x2="508.3" y2="661.1" stroke="#aaa" stroke-width="1.0" stroke-linecap="round"/>
<line x1="501.0" y1="277.9" x2="864.5" y2="349.9" stroke="#aaa" stroke-width="1.0" stroke-linecap="round"/>
<line x1="864.5" y1="349.9" x2="697.6" y2="600.0" stroke="#aaa" stroke-width="1.0" stroke-linecap="round"/>
<line x1="864.5" y1="349.9" x2="989.1" y2="449.9" stroke="#aaa" stroke-width="1.0" stroke-linecap="round"/>
<line x1="989.1" y1="449.9" x2="864.5" y2="349.9" stroke="#aaa" stroke-width="1.0" stroke-linecap="round"/>
<line x1="989.1" y1="449.9" x2="697.6" y2="600.0" stroke="#aaa" stroke-width="1.0" stroke-linecap="round"/>
<line x1="508.3" y1="661.1" x2="697.6" y2="600.0" stroke="#aaa" stroke-width="1.0" stroke-linecap="round"/>
<line x1="508.3" y1="661.1" x2="623.2" y2="718.2" stroke="#aaa" stroke-width="1.0" stroke-linecap="round"/>
<line x1="623.2" y1="718.2" x2="697.6" y2="600.0" stroke="#aaa" stroke-width="1.0" stroke-linecap="round"/>
<line x1="623.2" y1="718.2" x2="508.3" y2="661.1" stroke="#aaa" stroke-width="1.0" stroke-linecap="round"/>
<circle cx="120.0" cy="780.0" r="18.5" fill="#ff9da7" opacity="0.85" stroke="white" stroke-width="2"/>
<text x="120.0" y="812.5" text-anchor="middle" font-size="16" fill="#333">CreativeWork (2)</text>
<circle cx="396.5" cy="592.6" r="39.3" fill="#76b7b2" opacity="0.85" stroke="white" stroke-width="2"/>
<text x="396.5" y="645.9" text-anchor="middle" font-size="16" fill="#333">ArchivalResource (3025)</text>
<circle cx="501.0" cy="277.9" r="56.1" fill="#b07aa1" opacity="0.85" stroke="white" stroke-width="2"/>
<text x="501.0" y="348.0" text-anchor="middle" font-size="16" fill="#333">Person (9677)</text>
<circle cx="854.0" cy="472.2" r="25.1" fill="#d37295" opacity="0.85" stroke="white" stroke-width="2"/>
<text x="854.0" y="511.3" text-anchor="middle" font-size="16" fill="#333">RepositoryObject (334)</text>
<circle cx="1080.0" cy="372.6" r="27.8" fill="#FF6B6B" opacity="0.85" stroke="white" stroke-width="2"/>
<text x="1080.0" y="414.4" text-anchor="middle" font-size="16" fill="#333">File (642)</text>
<circle cx="722.5" cy="249.2" r="75.0" fill="#bab0ac" opacity="0.85" stroke="white" stroke-width="2"/>
<text x="722.5" y="338.2" text-anchor="middle" font-size="16" fill="#333">PublishedResource (21605)</text>
<circle cx="497.1" cy="416.4" r="39.9" fill="#ff9da7" opacity="0.85" stroke="white" stroke-width="2"/>
<text x="497.1" y="470.3" text-anchor="middle" font-size="16" fill="#333">Place (3181)</text>
<circle cx="806.2" cy="725.2" r="19.3" fill="#86bcb6" opacity="0.85" stroke="white" stroke-width="2"/>
<text x="806.2" y="758.5" text-anchor="middle" font-size="16" fill="#333">DigitalObject (11)</text>
<circle cx="697.6" cy="600.0" r="38.9" fill="#b07aa1" opacity="0.85" stroke="white" stroke-width="2"/>
<text x="697.6" y="652.9" text-anchor="middle" font-size="16" fill="#333">Corporate_Body (2898)</text>
<circle cx="508.3" cy="661.1" r="19.1" fill="#9c755f" opacity="0.85" stroke="white" stroke-width="2"/>
<text x="508.3" y="694.2" text-anchor="middle" font-size="16" fill="#333">Cultural_Object (8)</text>
<circle cx="213.3" cy="488.2" r="20.6" fill="#4e79a7" opacity="0.85" stroke="white" stroke-width="2"/>
<text x="213.3" y="522.8" text-anchor="middle" font-size="16" fill="#333">Journal (46)</text>
<circle cx="440.7" cy="511.1" r="19.8" fill="#d37295" opacity="0.85" stroke="white" stroke-width="2"/>
<text x="440.7" y="544.9" text-anchor="middle" font-size="16" fill="#333">Event (21)</text>
<circle cx="619.1" cy="464.5" r="29.3" fill="#45B7D1" opacity="0.85" stroke="white" stroke-width="2"/>
<text x="619.1" y="507.8" text-anchor="middle" font-size="16" fill="#333">Function (853)</text>
<circle cx="306.0" cy="414.6" r="20.9" fill="#59a14f" opacity="0.85" stroke="white" stroke-width="2"/>
<text x="306.0" y="449.5" text-anchor="middle" font-size="16" fill="#333">Award (56)</text>
<circle cx="989.1" cy="449.9" r="18.7" fill="#76b7b2" opacity="0.85" stroke="white" stroke-width="2"/>
<text x="989.1" y="482.5" text-anchor="middle" font-size="16" fill="#333">registry (3)</text>
<circle cx="864.5" cy="349.9" r="19.7" fill="#4e79a7" opacity="0.85" stroke="white" stroke-width="2"/>
<text x="864.5" y="383.6" text-anchor="middle" font-size="16" fill="#333">dataset (19)</text>
<circle cx="1039.0" cy="569.6" r="21.4" fill="#f28e2b" opacity="0.85" stroke="white" stroke-width="2"/>
<text x="1039.0" y="605.1" text-anchor="middle" font-size="16" fill="#333">Acronym (78)</text>
<circle cx="826.1" cy="297.6" r="20.0" fill="#59a14f" opacity="0.85" stroke="white" stroke-width="2"/>
<text x="826.1" y="331.6" text-anchor="middle" font-size="16" fill="#333">Parallel (27)</text>
<circle cx="940.6" cy="680.4" r="19.8" fill="#76b7b2" opacity="0.85" stroke="white" stroke-width="2"/>
<text x="940.6" y="714.2" text-anchor="middle" font-size="16" fill="#333">Now known as (22)</text>
<circle cx="229.3" cy="569.7" r="24.7" fill="#45B7D1" opacity="0.85" stroke="white" stroke-width="2"/>
<text x="229.3" y="608.3" text-anchor="middle" font-size="16" fill="#333">Unknown (295)</text>
<circle cx="660.5" cy="355.7" r="22.9" fill="#FF6B6B" opacity="0.85" stroke="white" stroke-width="2"/>
<text x="660.5" y="392.6" text-anchor="middle" font-size="16" fill="#333">State (160)</text>
<circle cx="870.5" cy="734.7" r="18.9" fill="#4e79a7" opacity="0.85" stroke="white" stroke-width="2"/>
<text x="870.5" y="767.6" text-anchor="middle" font-size="16" fill="#333">Abbreviation (6)</text>
<circle cx="202.6" cy="653.9" r="19.4" fill="#4ECDC4" opacity="0.85" stroke="white" stroke-width="2"/>
<text x="202.6" y="687.3" text-anchor="middle" font-size="16" fill="#333">Subsequent name (13)</text>
<circle cx="703.9" cy="496.4" r="22.5" fill="#e15759" opacity="0.85" stroke="white" stroke-width="2"/>
<text x="703.9" y="532.9" text-anchor="middle" font-size="16" fill="#333">Also known as (132)</text>
<circle cx="321.0" cy="680.6" r="19.9" fill="#4ECDC4" opacity="0.85" stroke="white" stroke-width="2"/>
<text x="321.0" y="714.6" text-anchor="middle" font-size="16" fill="#333">Former name (25)</text>
<circle cx="223.2" cy="341.0" r="19.3" fill="#e15759" opacity="0.85" stroke="white" stroke-width="2"/>
<text x="223.2" y="374.4" text-anchor="middle" font-size="16" fill="#333">Nationality (12)</text>
<circle cx="562.8" cy="120.0" r="19.9" fill="#e15759" opacity="0.85" stroke="white" stroke-width="2"/>
<text x="562.8" y="153.9" text-anchor="middle" font-size="16" fill="#333">married name (23)</text>
<circle cx="233.6" cy="210.5" r="20.8" fill="#f28e2b" opacity="0.85" stroke="white" stroke-width="2"/>
<text x="233.6" y="245.3" text-anchor="middle" font-size="16" fill="#333">maiden name (53)</text>
<circle cx="739.7" cy="139.0" r="19.0" fill="#edc948" opacity="0.85" stroke="white" stroke-width="2"/>
<text x="739.7" y="172.1" text-anchor="middle" font-size="16" fill="#333">Birth name (7)</text>
<circle cx="460.6" cy="121.7" r="18.4" fill="#86bcb6" opacity="0.85" stroke="white" stroke-width="2"/>
<text x="460.6" y="154.0" text-anchor="middle" font-size="16" fill="#333">Religious name (1)</text>
<circle cx="370.5" cy="139.8" r="18.4" fill="#f28e2b" opacity="0.85" stroke="white" stroke-width="2"/>
<text x="370.5" y="172.2" text-anchor="middle" font-size="16" fill="#333">Murray, Durno (1)</text>
<circle cx="295.9" cy="170.5" r="18.5" fill="#9c755f" opacity="0.85" stroke="white" stroke-width="2"/>
<text x="295.9" y="203.1" text-anchor="middle" font-size="16" fill="#333">Pseudonym (2)</text>
<circle cx="623.2" cy="718.2" r="19.5" fill="#edc948" opacity="0.85" stroke="white" stroke-width="2"/>
<text x="623.2" y="751.6" text-anchor="middle" font-size="16" fill="#333">Patent (14)</text>
<circle cx="1031.7" cy="775.8" r="18.7" fill="#bab0ac" opacity="0.85" stroke="white" stroke-width="2"/>
<text x="1031.7" y="808.5" text-anchor="middle" font-size="16" fill="#333">Dataset (3)</text>
</svg>
